<svg width="73" height="73" viewBox="0 0 73 73" fill="none" xmlns="http://www.w3.org/2000/svg">
<g id="Group 3">
<path id="Rectangle 5" d="M0 6.00354C0 2.68788 2.69797 0 6.02609 0H45.7983C49.1264 0 51.8244 2.68788 51.8244 6.00354V30.2178C51.8244 33.5335 49.1264 36.2214 45.7983 36.2214H6.02609C2.69797 36.2214 0 33.5335 0 30.2178V6.00354Z" fill="#306DAB"/>
<path id="Rectangle 6" d="M73 6.00354C73 2.68788 70.2652 0 66.8917 0H57.9328C54.5592 0 51.8244 2.68788 51.8244 6.00354V30.2178C51.8244 33.5335 54.5592 36.2214 57.9328 36.2214H66.8917C70.2652 36.2214 73 33.5335 73 30.2178V6.00354Z" fill="#76BFFF"/>
<path id="Rectangle 7" d="M73 66.9041C73 70.2708 70.2928 73 66.9532 73L22.2071 73C18.8675 73 16.1603 70.2708 16.1603 66.9041L16.1603 42.3173C16.1603 38.9506 18.8675 36.2214 22.2071 36.2214L66.9532 36.2214C70.2928 36.2214 73 38.9506 73 42.3173L73 66.9041Z" fill="#DDE9ED"/>
<path id="Rectangle 8" d="M-5.32921e-07 66.9041C-2.38597e-07 70.2708 2.71321 73 6.06011 73L10.1002 73C13.4471 73 16.1603 70.2708 16.1603 66.9041L16.1603 42.3173C16.1603 38.9506 13.4471 36.2214 10.1002 36.2214L6.06011 36.2214C2.7132 36.2214 -2.97669e-06 38.9506 -2.68237e-06 42.3173L-5.32921e-07 66.9041Z" fill="#93A8D0"/>
</g>
</svg>
